<?xml version="1.0" encoding="UTF-8"?><svg xmlns="http://www.w3.org/2000/svg" viewBox="0 0 63.56 63.56"><defs><style>.d{fill:#172342;}</style></defs><g id="a"/><g id="b"><g id="c"><path class="d" d="M60.25,15.03c-2.17-5.27-6.35-9.46-11.62-11.65-10.75-4.47-22.84-4.5-33.61-.06h0C9.75,5.49,5.56,9.67,3.37,14.93c-4.47,10.75-4.5,22.84-.06,33.61,2.17,5.27,6.35,9.46,11.62,11.65,10.75,4.47,22.84,4.5,33.61,.06,5.27-2.17,9.46-6.35,11.65-11.62h0c4.48-10.75,4.5-22.84,.06-33.61ZM14.53,22.61c-.72,0-1.3-.59-1.3-1.31l.04-7.59c0-.72,.59-1.29,1.3-1.29l21,.05c.73,0,1.32,.61,1.3,1.34l-.02,.67c0,4.48-3.65,8.13-8.13,8.13H14.53Zm22.14,27.23c0,.72-.58,1.3-1.3,1.3h-7.59c-.72,0-1.3-.58-1.3-1.3l.05-22.99c0-.73,.61-1.32,1.34-1.3h.3c4.68,.01,8.49,3.82,8.49,8.5v15.79Zm6.76-25.57l-1.17,.64c-1.21,.66-2.21,1.66-2.87,2.87l-.64,1.17c-.14,.26-.51,.26-.65,0l-.64-1.17c-.66-1.21-1.66-2.21-2.87-2.87l-1.17-.64c-.26-.14-.26-.51,0-.65l1.17-.64c1.21-.66,2.21-1.66,2.87-2.87l.64-1.17c.14-.26,.51-.26,.65,0l.64,1.17c.66,1.21,1.66,2.21,2.87,2.87l1.17,.64c.26,.14,.26,.51,0,.65Zm6.86-2.96c0,.72-.58,1.29-1.3,1.29h-.41c-4.69,0-8.5-3.8-8.5-8.5v-.39c0-.72,.59-1.3,1.31-1.3l7.65,.04c.72,0,1.3,.59,1.29,1.31l-.04,7.54Z"/></g></g></svg>