<svg fill="none" height="34" viewBox="0 0 84 34" width="84" xmlns="http://www.w3.org/2000/svg" xmlns:xlink="http://www.w3.org/1999/xlink"><clipPath id="a"><path d="m0 0h83.8667v34h-83.8667z"/></clipPath><g clip-path="url(#a)" fill="#fff"><path d="m19.0696 17.1586c0-4.7664 1.9675-9.42456 9.3353-9.42456s9.3353 4.65816 9.3353 9.42456c0 4.7663-2.0087 9.4921-9.3697 9.4921-7.3609 0-9.294-4.7663-9.294-9.4921zm9.294 4.8001c2.9513 0 3.9007-1.8659 3.9007-4.8001s-.8393-4.7664-3.8663-4.7664c-3.0269 0-3.8249 1.866-3.8249 4.7664s.9493 4.8001 3.7905 4.8001z"/><path d="m38.9441 27.7665h4.4647c.2889 0 .5503.2029.5916.4868.1651 1.0818.9906 2.0621 3.9419 2.0621 3.2058 0 3.6117-1.1494 3.6117-1.7173 0-.7166-.3302-1.1831-2.4766-1.5076l-4.1895-.6085c-3.7218-.5341-6.3772-1.2169-6.3772-3.9753 0-1.4063.8461-2.3055 2.1532-2.8734.4265-.1825.516-.7572.1376-1.0209-1.4103-.9803-1.8918-2.4744-1.8918-4.1308 0-6.41599 7.182-6.41599 9.7343-6.41599h7.815c.3371 0 .6054.26367.6054.59495v1.53474c0 .2298-.1307.4394-.344.5341l-1.5547.7369c-.3922.1893-.4747.7166-.1307.9871.7498.5949 1.3414 1.5482 1.3414 3.3127 0 4.8002-4.4097 5.1585-9.2596 5.3005-2.0019.0744-3.2058.0338-3.2058.791 0 .4665.3646.6423 4.6642 1.2508 5.3247.7504 8.8607 1.1831 8.8607 5.0165 0 2.7922-1.713 5.8751-10.0233 5.8751-6.6455 0-8.84-1.9809-9.0602-5.5844-.0206-.3516.2477-.6491.6054-.6491zm8.6749-10.4251c2.3321 0 2.8824-1.075 2.8824-2.684 0-1.4333-.4746-2.4339-2.9168-2.4339s-2.9169.9668-2.9169 2.5083c0 1.5414.5435 2.6164 2.9513 2.6164z"/><path d="m57.2021 21.026c0-3.5088 2.4422-4.9827 7.6568-5.5168l4.1208-.4259c.4402-.0473.7705-.4259.7292-.8586-.172-1.8254-1.0526-2.4474-3.2471-2.4474-1.9744 0-2.7518.7707-2.9375 1.8998-.0619.3786-.4128.6422-.798.6422h-3.9488c-.4746 0-.853-.3988-.8186-.8586.2408-3.4345 2.0844-5.73313 8.3584-5.73313 7.9457 0 9.1152 3.50883 9.1152 8.24143v9.553c0 .4462-.3646.8045-.8186.8045h-1.2177c-.3164 0-.6054-.1825-.7429-.4665l-.5504-1.1764c-.2477-.5273-.9562-.622-1.3484-.1893-1.2795 1.4063-3.1094 2.15-5.8268 2.15-4.3753 0-7.7256-1.7917-7.7256-5.625zm8.8951 1.6835c2.1876 0 3.3296-1.0818 3.591-3.0221.0688-.5273-.3714-.9803-.908-.9195l-2.683.3178c-2.2633.2501-2.9513.8586-2.9513 1.7172 0 1.1088.8737 1.8998 2.9513 1.8998z"/><path d="m78.4593 8.05884h3.6805c.5641 0 1.0181.44621 1.0181 1.00059v16.26647c0 .5544-.454 1.0006-1.0181 1.0006h-3.6805c-.5641 0-1.0181-.4462-1.0181-1.0006v-16.26647c0-.55438.454-1.00059 1.0181-1.00059z"/><path d="m0 6.01026.0275176-5.124674c.0068794-.486777.4058844-.87890265.9012004-.87890265l14.446682.03380395c.5022 0 .9081.4124077.8944.9059457l-.0138.452977c0 3.02883-2.511 5.49651-5.5929 5.49651h-9.768779c-.495316 0-.894321-.39888-.894321-.88566z"/><path d="m9.11528 25.3056.0344-15.54303c0-.49354.41964-.89243.92182-.8789h.2064c3.2195.00676 5.8406 2.58263 5.8406 5.74663v10.6753c0 .4868-.399.8789-.8943.8789h-5.2215c-.4953 0-.8943-.3921-.8943-.8789z"/><path d="m24.3187 6.89599c-3.2265 0-5.8475-2.5691-5.8475-5.74667v-.263673c0-.486777.4059-.87890262.9012-.87890262l5.2627.02704312c.4953 0 .8943.3988865.8875.8856635l-.0275 5.097629c0 .48678-.3991.87215-.8944.87215h-.282z"/><path d="m82.9311 2.85981.8049.43269c.1789.09465.1789.3448 0 .43945l-.8049.43269c-.8324.44621-1.5203 1.12229-1.9744 1.94034l-.4403.79102c-.0963.17578-.3508.17578-.4471 0l-.4403-.79102c-.454-.81805-1.142-1.49413-1.9744-1.94034l-.8049-.43269c-.1788-.09465-.1788-.3448 0-.43945l.8049-.43269c.8324-.44622 1.5204-1.12229 1.9744-1.94035l.4403-.791012c.0963-.1757806.3508-.1757806.4471 0l.4403.791012c.4541.81806 1.142 1.49413 1.9744 1.94035z"/></g></svg>